# xmcd
#
# Track frame offsets:
#	150
#	9031
#	19429
#	29888
#	38777
#	49043
#	58210
#	69068
#	77799
#	85555
#	96348
#	105642
#	115769
#	125821
#	137459
#	147052
#	156737
#	166679
#	175884
#	186749
#	196130
#	218040
#	234331
#	242545
#	250892
#
# Disc length: 3499 seconds
# Revision: 0
# Processed by: cddbd v1.5.2PL0 Copyright (c) Steve Scherf et al.
# Submitted via: dBpowerAMP V12.0
#
DISCID=550da919
DTITLE=The Everly Brothers - Greatest Hits, Disc 1 of 3
DYEAR=2013
DGENRE=Pop_Rock
TTITLE0=Wake Up Little Susie
TTITLE1=Bye Bye Love
TTITLE2=Walk Right Back
TTITLE3=Problems
TTITLE4=Sigh, Cry, Almost Die
TTITLE5=Crying in the Rain
TTITLE6=('Til) I Kissed You
TTITLE7=Stick With Me Baby
TTITLE8=Should We Tell Him
TTITLE9=Sleepless Nights
TTITLE10=When Will I Be Loved
TTITLE11=Donna Donna
TTITLE12=Temptation
TTITLE13=So Sad (To Watch Good Love Go Bad)
TTITLE14=No One Can Make My Sunshine Smile
TTITLE15=Maybe Tomorrow
TTITLE16=Just in Case
TTITLE17=That's What You Do to Me
TTITLE18=Some Sweet Day
TTITLE19=Made to Love
TTITLE20=Lightning Express
TTITLE21=I'm Here to Get My Baby Out of Jail
TTITLE22=How Can I Meet Her?
TTITLE23=Long Lost John
TTITLE24=Memories Are Made of This
EXTD=
EXTT0=
EXTT1=
EXTT2=
EXTT3=
EXTT4=
EXTT5=
EXTT6=
EXTT7=
EXTT8=
EXTT9=
EXTT10=
EXTT11=
EXTT12=
EXTT13=
EXTT14=
EXTT15=
EXTT16=
EXTT17=
EXTT18=
EXTT19=
EXTT20=
EXTT21=
EXTT22=
EXTT23=
EXTT24=
PLAYORDER=
